<?xml version="1.0" encoding="UTF-8"?>
<svg xmlns="http://www.w3.org/2000/svg" viewBox="0 0 256.39 256.39">
  <rect width="256.39" height="256.39" fill="#fff"/>
  <g fill="#000">
    <path d="M215.01,117.6L103.89,35.83c-6.37-4.69-15.17.05-15.17,8.17v8.2c0,2.46.95,4.81,2.59,6.59,16.07,17.36,25.96,40.97,25.96,66.98s-9.89,49.62-25.96,66.98c-1.64,1.77-2.59,4.12-2.59,6.59v8.2c0,8.12,8.8,12.86,15.17,8.17l111.12-81.77c5.42-3.99,5.42-12.35,0-16.34ZM173.14,128.34l-34.98,25.74c-2,1.48-4.77-.02-4.77-2.57v-2.58c0-.78.3-1.51.81-2.07,5.06-5.46,8.17-12.9,8.17-21.08s-3.11-15.62-8.17-21.08c-.52-.56-.81-1.3-.81-2.07v-2.58c0-2.56,2.77-4.05,4.77-2.57l34.98,25.74c1.71,1.26,1.71,3.89,0,5.14Z"/>
    <path d="M0,119.49h80.02c4.81,0,8.71,3.9,8.71,8.71h0c0,4.81-3.9,8.71-8.71,8.71H0v-17.42Z"/>
    <rect x="38.15" y="88.16" width="50.58" height="17.42" rx="8.71" ry="8.71"/>
    <rect x="38.15" y="150.81" width="50.58" height="17.42" rx="8.71" ry="8.71"/>
  </g>
</svg>
